<?xml version="1.0" encoding="utf-8"?>
<!-- Generator: Adobe Illustrator 16.0.0, SVG Export Plug-In . SVG Version: 6.00 Build 0)  -->
<!DOCTYPE svg PUBLIC "-//W3C//DTD SVG 1.1//EN" "http://www.w3.org/Graphics/SVG/1.1/DTD/svg11.dtd">
<svg version="1.1" id="Layer_1" xmlns="http://www.w3.org/2000/svg" xmlns:xlink="http://www.w3.org/1999/xlink" x="0px" y="0px"
	 width="1024px" height="768px" viewBox="0 0 1024 768" enable-background="new 0 0 1024 768" xml:space="preserve">
<rect x="44" y="56" opacity="0" width="936" height="657"/>
<text transform="matrix(1 0 0 1 292.4224 421)"><tspan x="0" y="0" fill="#00CFFF" font-family="'GillSans'" font-size="72" letter-spacing="-10">Y</tspan><tspan x="33.408" y="0" fill="#00CFFF" font-family="'GillSans'" font-size="72">our</tspan><tspan x="137.646" y="0" fill="#00CFFF" font-family="'GillSans'" font-size="72" letter-spacing="-9"> </tspan><tspan x="148.65" y="0" fill="#00CFFF" font-family="'GillSans'" font-size="72" letter-spacing="-6">W</tspan><tspan x="217.266" y="0" fill="#00CFFF" font-family="'GillSans'" font-size="72">eb Page</tspan></text>
<text transform="matrix(1 0 0 1 181.8833 310)"><tspan x="0" y="0" fill="#FFFFFF" font-family="'GillSans'" font-size="42">sign up </tspan><tspan x="129.63" y="0" fill="#FFFFFF" font-family="'GillSans'" font-size="42">f</tspan><tspan x="139.752" y="0" fill="#FFFFFF" font-family="'GillSans'" font-size="42">or n</tspan><tspan x="212.227" y="0" fill="#FFFFFF" font-family="'GillSans'" font-size="42">e</tspan><tspan x="231.715" y="0" fill="#FFFFFF" font-family="'GillSans'" font-size="42">wsletter</tspan></text>
<text transform="matrix(1 0 0 1 641.5977 527.5)"><tspan x="0" y="0" fill="#FFFFFF" font-family="'GillSans'" font-size="42">click th</tspan><tspan x="121.98" y="0" fill="#FFFFFF" font-family="'GillSans'" font-size="42" letter-spacing="-1">r</tspan><tspan x="137.605" y="0" fill="#FFFFFF" font-family="'GillSans'" font-size="42">ough</tspan></text>
<text transform="matrix(1 0 0 1 654.0156 576.5)"><tspan x="0" y="0" fill="#FFFFFF" font-family="'GillSans'" font-size="42">a slidesh</tspan><tspan x="142.857" y="0" fill="#FFFFFF" font-family="'GillSans'" font-size="42">o</tspan><tspan x="165.653" y="0" fill="#FFFFFF" font-family="'GillSans'" font-size="42">w</tspan></text>
<g>
	<text transform="matrix(1 0 0 1 561.4297 239.5)" opacity="0.7"><tspan x="0" y="0" fill="#FFFFFF" font-family="'GillSans'" font-size="30">use the interacti</tspan><tspan x="197.271" y="0" fill="#FFFFFF" font-family="'GillSans'" font-size="30">v</tspan><tspan x="209.841" y="0" fill="#FFFFFF" font-family="'GillSans'" font-size="30">e m</tspan><tspan x="255.676" y="0" fill="#FFFFFF" font-family="'GillSans'" font-size="30">a</tspan><tspan x="268.209" y="0" fill="#FFFFFF" font-family="'GillSans'" font-size="30">p in</tspan></text>
</g>
<g>
	<text transform="matrix(1 0 0 1 575.1367 274.5)" opacity="0.7"><tspan x="0" y="0" fill="#FFFFFF" font-family="'GillSans'" font-size="30">f</tspan><tspan x="7.23" y="0" fill="#FFFFFF" font-family="'GillSans'" font-size="30">ooter to get di</tspan><tspan x="187.157" y="0" fill="#FFFFFF" font-family="'GillSans'" font-size="30">r</tspan><tspan x="198.438" y="0" fill="#FFFFFF" font-family="'GillSans'" font-size="30">ections</tspan></text>
</g>
<g>
	<text transform="matrix(1 0 0 1 155.6665 505.5)" opacity="0.7"><tspan x="0" y="0" fill="#FFFFFF" font-family="'GillSans'" font-size="36">quick</tspan><tspan x="76.904" y="0" fill="#FFFFFF" font-family="'GillSans'" font-size="36">l</tspan><tspan x="84.473" y="0" fill="#FFFFFF" font-family="'GillSans'" font-size="36">y ﬁnd something</tspan></text>
</g>
<g>
	<text transform="matrix(1 0 0 1 107.8716 546.5)" opacity="0.7"><tspan x="0" y="0" fill="#FFFFFF" font-family="'GillSans'" font-size="36">with our fancy sea</tspan><tspan x="266.256" y="0" fill="#FFFFFF" font-family="'GillSans'" font-size="36">r</tspan><tspan x="279.647" y="0" fill="#FFFFFF" font-family="'GillSans'" font-size="36">ch widget</tspan></text>
</g>
<g>
	<text transform="matrix(1 0 0 1 144.3066 169.5)" opacity="0.7" fill="#FFFFFF" font-family="'GillSans'" font-size="26">check out the</text>
</g>
<g>
	<text transform="matrix(1 0 0 1 125.9492 199.5)" opacity="0.7"><tspan x="0" y="0" fill="#FFFFFF" font-family="'GillSans'" font-size="26">t</tspan><tspan x="8.658" y="0" fill="#FFFFFF" font-family="'GillSans'" font-size="26">w</tspan><tspan x="26.838" y="0" fill="#FFFFFF" font-family="'GillSans'" font-size="26">o extra tabs of</tspan></text>
</g>
<g>
	<text transform="matrix(1 0 0 1 101.0347 229.5)" opacity="0.7" fill="#FFFFFF" font-family="'GillSans'" font-size="26">content in the sidebar</text>
</g>
<text transform="matrix(1 0 0 1 374.1157 193)"><tspan x="0" y="0" fill="#FFFFFF" font-family="'GillSans'" font-size="42">ta</tspan><tspan x="31.91" y="0" fill="#FFFFFF" font-family="'GillSans'" font-size="42" letter-spacing="-1">k</tspan><tspan x="50.811" y="0" fill="#FFFFFF" font-family="'GillSans'" font-size="42">e our poll</tspan></text>
<text transform="matrix(1 0 0 1 319.2417 630.5)"><tspan x="0" y="0" fill="#FFFFFF" font-family="'GillSans'" font-size="42">step th</tspan><tspan x="117.92" y="0" fill="#FFFFFF" font-family="'GillSans'" font-size="42" letter-spacing="-1">r</tspan><tspan x="133.544" y="0" fill="#FFFFFF" font-family="'GillSans'" font-size="42">ough the</tspan></text>
<text transform="matrix(1 0 0 1 312.6382 679.5)"><tspan x="0" y="0" fill="#FFFFFF" font-family="'GillSans'" font-size="42">the sig</tspan><tspan x="110.065" y="0" fill="#FFFFFF" font-family="'GillSans'" font-size="42">n</tspan><tspan x="130.688" y="0" fill="#FFFFFF" font-family="'GillSans'" font-size="42">up wiza</tspan><tspan x="259.209" y="0" fill="#FFFFFF" font-family="'GillSans'" font-size="42">r</tspan><tspan x="275.211" y="0" fill="#FFFFFF" font-family="'GillSans'" font-size="42">d</tspan></text>
<text transform="matrix(1 0 0 1 521.0215 119)"><tspan x="0" y="0" fill="#FFFFFF" font-family="'GillSans'" font-size="42">r</tspan><tspan x="15.792" y="0" fill="#FFFFFF" font-family="'GillSans'" font-size="42">ead an a</tspan><tspan x="155.43" y="0" fill="#FFFFFF" font-family="'GillSans'" font-size="42">r</tspan><tspan x="172.859" y="0" fill="#FFFFFF" font-family="'GillSans'" font-size="42">ticle</tspan></text>
<g>
	<text transform="matrix(1 0 0 1 773.7676 653.5)" opacity="0.7"><tspan x="0" y="0" fill="#FFFFFF" font-family="'GillSans'" font-size="24">sha</tspan><tspan x="31.477" y="0" fill="#FFFFFF" font-family="'GillSans'" font-size="24">r</tspan><tspan x="40.525" y="0" fill="#FFFFFF" font-family="'GillSans'" font-size="24">e an a</tspan><tspan x="97.842" y="0" fill="#FFFFFF" font-family="'GillSans'" font-size="24">r</tspan><tspan x="107.801" y="0" fill="#FFFFFF" font-family="'GillSans'" font-size="24">ticle</tspan></text>
</g>
<g>
	<text transform="matrix(1 0 0 1 785.2285 681.5)" opacity="0.7" fill="#FFFFFF" font-family="'GillSans'" font-size="24">on Facebook</text>
</g>
<g>
	<text transform="matrix(1 0 0 1 817.7676 348.5)" opacity="0.7"><tspan x="0" y="0" fill="#FFFFFF" font-family="'GillSans'" font-size="24">sha</tspan><tspan x="31.477" y="0" fill="#FFFFFF" font-family="'GillSans'" font-size="24">r</tspan><tspan x="40.525" y="0" fill="#FFFFFF" font-family="'GillSans'" font-size="24">e an a</tspan><tspan x="97.842" y="0" fill="#FFFFFF" font-family="'GillSans'" font-size="24">r</tspan><tspan x="107.801" y="0" fill="#FFFFFF" font-family="'GillSans'" font-size="24">ticle</tspan></text>
</g>
<g>
	<text transform="matrix(1 0 0 1 842.2715 376.5)" opacity="0.7"><tspan x="0" y="0" fill="#FFFFFF" font-family="'GillSans'" font-size="24">on</tspan><tspan x="25.242" y="0" fill="#FFFFFF" font-family="'GillSans'" font-size="24" letter-spacing="-3"> </tspan><tspan x="28.91" y="0" fill="#FFFFFF" font-family="'GillSans'" font-size="24" letter-spacing="-3">T</tspan><tspan x="39.83" y="0" fill="#FFFFFF" font-family="'GillSans'" font-size="24">witter</tspan></text>
</g>
<g>
	<text transform="matrix(1 0 0 1 58.7681 403.5)" opacity="0.7"><tspan x="0" y="0" fill="#FFFFFF" font-family="'GillSans'" font-size="24">sha</tspan><tspan x="31.477" y="0" fill="#FFFFFF" font-family="'GillSans'" font-size="24">r</tspan><tspan x="40.524" y="0" fill="#FFFFFF" font-family="'GillSans'" font-size="24">e an a</tspan><tspan x="97.841" y="0" fill="#FFFFFF" font-family="'GillSans'" font-size="24">r</tspan><tspan x="107.801" y="0" fill="#FFFFFF" font-family="'GillSans'" font-size="24">ticle</tspan></text>
</g>
<g>
	<text transform="matrix(1 0 0 1 58.6509 431.5)" opacity="0.7" fill="#FFFFFF" font-family="'GillSans'" font-size="24">on Google Plus</text>
</g>
<g>
	<text transform="matrix(1 0 0 1 97.6235 634.5)" opacity="0.7"><tspan x="0" y="0" fill="#FFFFFF" font-family="'GillSans'" font-size="24">li</tspan><tspan x="10.523" y="0" fill="#FFFFFF" font-family="'GillSans'" font-size="24">k</tspan><tspan x="21.324" y="0" fill="#FFFFFF" font-family="'GillSans'" font-size="24">e us on</tspan></text>
</g>
<g>
	<text transform="matrix(1 0 0 1 97.1841 662.5)" opacity="0.7" fill="#FFFFFF" font-family="'GillSans'" font-size="24">Facebook</text>
</g>
<text transform="matrix(1 0 0 1 777.085 185)" fill="#FFFFFF" font-family="'GillSans'" font-size="42">contact us</text>
</svg>
